<?xml version="1.0" encoding="utf-8"?>
<!-- Generator: Adobe Illustrator 28.1.0, SVG Export Plug-In . SVG Version: 6.00 Build 0)  -->
<svg version="1.1" id="Layer_1" xmlns="http://www.w3.org/2000/svg" xmlns:xlink="http://www.w3.org/1999/xlink" x="0px" y="0px"
	 viewBox="0 0 720 720" style="enable-background:new 0 0 720 720;" xml:space="preserve">
<style type="text/css">
	.st0{clip-path:url(#SVGID_00000103959185470842976390000017806709890597902746_);}
	.st1{fill:none;stroke:#FFFFFF;stroke-miterlimit:10;}
</style>
<g>
	<defs>
		<rect id="SVGID_1_" width="720" height="720"/>
	</defs>
	<clipPath id="SVGID_00000047044406802990889880000016767263150740970150_">
		<use xlink:href="#SVGID_1_"  style="overflow:visible;"/>
	</clipPath>
	<g style="clip-path:url(#SVGID_00000047044406802990889880000016767263150740970150_);">
		<path class="st1" d="M720,0H0v720h720V0z"/>
		<path d="M137.1,198.7L335.8,0l7.1,7.1L133,216.9C135,211.1,136.4,205.1,137.1,198.7z M180.1,79.3l72.2-72.2L245.3,0l-71.8,71.8
			C176.4,74.1,178.6,76.6,180.1,79.3z M108.9,193.5c3.5-49.4,11.1-65.9,27.8-86.2c9.7-11.8,16-25.5,18.6-35.4
			c-0.5-0.2-0.9-0.4-1.4-0.7c-17.8-7.8-33.3-13-45.2-15.4C96,53.4,89.7,52.7,86,56.8c20.9,26.9,2.4,63.9-31.1,66.6
			c0,0,0.7,7.3,1.5,18.1L78.8,130c2.5-1.3,5.5-0.3,6.7,2.2c1.3,2.5,0.3,5.5-2.2,6.7L57,152.3c0.1,2.6,0.3,5.4,0.4,8.2l17.7-9
			c2.5-1.3,5.5-0.3,6.7,2.2c1.3,2.5,0.3,5.5-2.2,6.7l-21.8,11.2c0.1,2.8,0.1,5.5,0.2,8.3l13.5-6.9c2.5-1.3,5.5-0.3,6.7,2.2
			c1.3,2.5,0.3,5.5-2.2,6.7l-18.1,9.2c0,1.2-0.1,2.5-0.1,3.7c-0.1,1.7-0.2,3.3-0.3,4.9l10.3-5.3c2.5-1.3,5.5-0.3,6.7,2.2
			c1.3,2.5,0.3,5.5-2.2,6.7l-16.6,8.5c-4.7,23.3-15.7,42.9-17.2,58c-0.1,0.7-0.1,1.4-0.1,2C81.8,251.1,106.8,223.3,108.9,193.5z
			 M118.9,194.2c-2.4,33.6-29.4,64.2-76.1,86.6c2.6,2,6.3,2.8,10.6,1.4c2.2-0.7,7.1-3,13.5-6.7l4.7,5.3l-2.2-6.8
			c6.6-4,14.5-9.4,22.2-16.2l6.3,5.3l-4.1-7.2c7.4-6.6,14.5-14.4,20.3-23.3l5.8,2.7l-4.5-4.6c6.4-10.4,11-22.2,12-35.3
			c0.9-12.7,2.5-23.3,4.5-32.4c8-30.8,23.5-42.3,30.7-52.8c10.9-15.9,15.4-24.3,1.5-32.8c-3.4,11.3-10.1,24.7-19.6,36.2
			C129.7,131.6,122.4,145.3,118.9,194.2z M720,199.7l-64.2,64.2c0.9,29-4.1,58.1-15.3,85.3l68.2-68.2l11.3,11.3L416.9,595.5
			c-80.6,80.6-211.8,80.6-292.4,0c-16.3-16.3-29.3-34.7-39-54.3l-74.2,74.2L0,604l78.6-78.6c-7.1-18.1-11.6-37-13.5-56.1l-58,58
			L0,520.3l64.2-64.2c-0.9-29,4.1-58.1,15.3-85.3L11.3,439L0,427.6l303.1-303.1c80.6-80.6,211.8-80.6,292.4,0
			c16.3,16.3,29.3,34.7,39,54.3l74.2-74.2L720,116l-78.6,78.6c7.1,18.1,11.6,37,13.5,56.1l58-58L720,199.7z M80.3,440L340,180.4
			c55.1-55.1,144.6-55.1,199.7,0c16.9,16.9,28.5,37,35.1,58.3l47.8-47.8c-9.2-19.9-21.9-38.6-38.3-55c-74.4-74.4-195.4-74.4-269.7,0
			L135.9,314.4C101,349.2,82.5,394.3,80.3,440z M511,302.3l55.6-55.6c-5.7-21.7-17-42.3-34-59.3c-51.2-51.2-134.4-51.2-185.5,0
			L187.4,347c-29.2,29.2-41.7,68.9-37.6,107.1L372,232c32-32,84-32,116,0C507.1,251.1,514.8,277.4,511,302.3z M476.6,336.7
			L476.6,336.7c25.7-25.8,25.7-67.6,0-93.3c-25.7-25.7-67.6-25.7-93.4,0l-140,140c-25.7,25.7-25.7,67.6,0,93.4
			c25.7,25.7,67.6,25.7,93.4,0L476.6,336.7z M153.4,473.2c5.7,21.7,17,42.3,34,59.3c51.2,51.2,134.4,51.2,185.5,0L532.5,373
			c29.2-29.2,41.7-68.9,37.6-107.1L348,488c-32,32-84,32-116,0c-19.1-19.1-26.8-45.4-23-70.3L153.4,473.2z M91,513l50-50
			c-4.4-26.5-1.2-54.1,9.6-79.1l-70.4,70.4C80.7,474.2,84.3,494,91,513z M639.7,280L380,539.6c-55.1,55.1-144.6,55.1-199.7,0
			c-16.9-16.9-28.5-37-35.1-58.3l-47.8,47.8c9.2,19.9,21.9,38.6,38.3,55c74.4,74.4,195.4,74.4,269.7,0l178.6-178.5l0,0
			C619,370.7,637.5,325.7,639.7,280z M639.8,265.7c-0.5-19.9-4.1-39.8-10.8-58.8l-50,50c4.4,26.5,1.2,54.1-9.6,79.1L639.8,265.7z
			 M587,503.1L377.1,712.9l7.1,7.1l198.7-198.7C583.6,514.9,585,508.9,587,503.1z M539.8,640.7l-72.2,72.2l7.1,7.1l71.8-71.8
			C543.6,645.9,541.4,643.4,539.8,640.7z M611.1,526.5c-3.5,49.4-11.1,65.9-27.8,86.2c-9.7,11.8-16,25.5-18.6,35.4
			c0.5,0.2,0.9,0.4,1.4,0.7c17.8,7.8,33.3,13,45.2,15.4c12.7,2.5,19.1,3.2,22.7-0.9c-20.9-26.9-2.4-63.9,31.1-66.6
			c0,0-0.7-7.3-1.5-18.1L641.2,590c-2.5,1.3-5.5,0.3-6.7-2.2c-1.3-2.5-0.3-5.5,2.2-6.7l26.3-13.4c-0.1-2.6-0.3-5.4-0.4-8.2l-17.7,9
			c-2.5,1.3-5.5,0.3-6.7-2.2c-1.3-2.5-0.3-5.5,2.2-6.7l21.8-11.2c-0.1-2.8-0.1-5.5-0.2-8.3l-13.5,6.9c-2.5,1.3-5.5,0.3-6.7-2.2
			c-1.3-2.5-0.3-5.5,2.2-6.7l18.1-9.2c0-1.2,0.1-2.5,0.1-3.7c0.1-1.7,0.2-3.3,0.3-4.9l-10.3,5.3c-2.5,1.3-5.5,0.3-6.7-2.2
			s-0.3-5.5,2.2-6.7l16.6-8.5c4.7-23.3,15.7-42.9,17.2-58c0.1-0.7,0.1-1.4,0.1-2C638.2,468.9,613.2,496.7,611.1,526.5z M601.1,525.8
			c2.4-33.6,29.4-64.2,76.1-86.6c-2.6-2-6.3-2.8-10.6-1.4c-2.2,0.7-7.1,3-13.5,6.7l-4.7-5.3l2.2,6.8c-6.6,4-14.5,9.4-22.2,16.2
			l-6.3-5.3l4.1,7.2c-7.4,6.6-14.5,14.4-20.3,23.3l-5.8-2.7l4.5,4.6c-6.4,10.4-11,22.2-12,35.3c-0.9,12.7-2.5,23.3-4.5,32.4
			c-8,30.8-23.5,42.3-30.7,52.8c-10.9,15.9-15.4,24.3-1.5,32.8c3.4-11.3,10.1-24.7,19.6-36.2C590.3,588.4,597.6,574.7,601.1,525.8z"
			/>
	</g>
</g>
</svg>
