<?xml version="1.0" encoding="utf-8"?>
<!-- Generator: Adobe Illustrator 28.1.0, SVG Export Plug-In . SVG Version: 6.00 Build 0)  -->
<svg version="1.1" id="Layer_1" xmlns="http://www.w3.org/2000/svg" xmlns:xlink="http://www.w3.org/1999/xlink" x="0px" y="0px"
	 viewBox="0 0 720 720" style="enable-background:new 0 0 720 720;" xml:space="preserve">
<style type="text/css">
	.st0{clip-path:url(#SVGID_00000088115086020107385560000006175104098451025840_);}
	.st1{fill:none;stroke:#FFFFFF;stroke-miterlimit:10;}
</style>
<g>
	<defs>
		<rect id="SVGID_1_" width="720" height="720"/>
	</defs>
	<clipPath id="SVGID_00000002351251199239492250000005141446902449075610_">
		<use xlink:href="#SVGID_1_"  style="overflow:visible;"/>
	</clipPath>
	<g style="clip-path:url(#SVGID_00000002351251199239492250000005141446902449075610_);">
		<path class="st1" d="M720,0H0v720h720V0z"/>
		<path d="M43,417.2l-7.4-7.4L49,379.3l10.4,10.4L43,417.2z M152,223.4l-87-87L136.3,65l87,87l-7.1,7.1l-16-16l-25.1,25.1l16,16
			l-7.1,7.1l-16-16L143,200.4l16,16L152,223.4z M168.3,111.1l-25.1,25.1l24.9,24.9l25.1-25.1L168.3,111.1z M111.2,104.2l24.9,24.9
			l25.1-25.1l-24.9-24.9L111.2,104.2z M104,161.3l25.1-25.1l-24.9-24.9l-25.1,25.1L104,161.3z M136,193.3l25.1-25.1l-24.9-24.9
			L111,168.4L136,193.3z M76.5,464.9l-45.1-45.1l-7.1,7.1l45.1,45.1L76.5,464.9z M9.3,441.9c-12.4,12.4-12.4,32.6,0,45.1
			s32.6,12.4,45.1,0l7.9-7.9l-45.1-45.1L9.3,441.9z M122.2,284.7l-7.8-22.8c-1-2.9-3.6-4.9-6.7-5c-3.1-0.1-5.9,1.6-7.1,4.5
			L53.3,369.5l11.4,11.4L122.2,284.7z M130.2,277.1L333.8,73.5l-7.1-7.1L126.6,266.6L130.2,277.1z M207,365l-2.5-22.9
			c-0.3-3.2-2.7-5.7-5.8-6.3l-26.5-4.8l-78.7,78.7l14.5,14.5L207,365z M50.3,424.5l7.2,7.2l21.9-21.9L66.7,397L50.3,424.5z
			 M154.1,291.7l-22.9-2.5l-59.3,99l14.5,14.5l78.7-78.7l-4.8-26.5C159.8,294.4,157.3,292,154.1,291.7z M229.6,369.6L525.7,73.5
			l-7.1-7.1L219.1,366L229.6,369.6z M99.2,429.5l-12.7-12.7l-21.9,21.9l7.2,7.2L99.2,429.5z M116.9,447.2l-10.4-10.4L79,453.2
			l7.4,7.4L116.9,447.2z M312.2,255l7.1-7.1l-23.1-23.1l-71.4,71.4l23.1,23.1l7.1-7.1l-16-16l25.1-25.1l16,16l7.1-7.1l-16-16
			l25.1-25.1L312.2,255z M183.9,241.2l-7.1,7.1l23.1,23.1l71.4-71.4l-23.1-23.1l-7.1,7.1l16,16l-25.1,25.1l-16-16l-7.1,7.1l16,16
			l-25.1,25.1L183.9,241.2z M234.8,395.5c2.8-1.2,4.6-4,4.5-7.1c-0.1-3.1-2.1-5.7-5-6.7l-22.8-7.8l-96.2,57.5l11.4,11.4L234.8,395.5
			z M174.9,321.3l6,1.1L429.8,73.5l-7.1-7.1L173.8,315.3L174.9,321.3z M536.1,478.9l7.1-7.1l-23.1-23.1l-71.4,71.4l23.1,23.1
			l7.1-7.1l-16-16l25.1-25.1l16,16l7.1-7.1l-16-16l25.1-25.1L536.1,478.9z M589.8,443L386.1,646.6l7.1,7.1l200.1-200.1L589.8,443z
			 M407.8,465.1l-7.1,7.1l23.1,23.1l71.4-71.4l-23.1-23.1l-7.1,7.1l16,16l-25.1,25.1l-16-16l-7.1,7.1l16,16l-25.1,25.1L407.8,465.1z
			 M568,496.7l87,87l-71.4,71.4l-87-87l7.1-7.1l16,16l25.1-25.1l-16-16l7.1-7.1l16,16l25.1-25.1l-16-16L568,496.7z M551.7,609
			l25.1-25.1L551.9,559l-25.1,25.1L551.7,609z M608.8,615.9L583.9,591l-25.1,25.1l24.9,24.9L608.8,615.9z M616,558.8l-25.1,25.1
			l24.9,24.9l25.1-25.1L616,558.8z M584,526.8L559,551.9l24.9,24.9l25.1-25.1L584,526.8z M545.1,398.8l-6-1.1L290.2,646.6l7.1,7.1
			l248.9-248.9L545.1,398.8z M597.8,435.4l7.8,22.8c1,2.9,3.6,4.9,6.7,5c3.1,0.1,5.9-1.6,7.1-4.5l47.4-108.1l-11.4-11.4L597.8,435.4
			z M643.5,255.3l45.1,45.1l7.1-7.1l-45.1-45.1L643.5,255.3z M710.7,233.2c-12.4-12.4-32.6-12.4-45.1,0l-7.9,7.9l45.1,45.1l7.9-7.9
			C723.1,265.8,723.1,245.6,710.7,233.2z M660.6,330.4l10.4,10.4l13.4-30.5l-7.4-7.4L660.6,330.4z M330,401.4L77.7,653.7l-11.3-11.3
			l252.3-252.3l-45.9-45.9l7.1-7.1l16,16l25.1-25.1l-16-16l7.1-7.1l16,16l25.1-25.1l-16-16l7.1-7.1l45.9,45.9L642.4,66.4l11.3,11.3
			L401.3,330l45.9,45.9l-7.1,7.1l-16-16L399,392.1l16,16l-7.1,7.1l-16-16l-25.1,25.1l16,16l-7,7L330,401.4z M384.9,392l-22.8-22.8
			L337,394.3l22.8,22.8L384.9,392z M369.2,362.2L392,385l25.1-25.1l-22.8-22.8L369.2,362.2z M335.1,328.1l22.8,22.8l25.1-25.1
			L360.2,303L335.1,328.1z M325.7,383l25.1-25.1L328,335.2l-25.1,25.1L325.7,383z M521.3,384.3l26.5,4.8l78.7-78.7L612,295.9
			l-99,59.3l2.5,22.9C515.8,381.2,518.2,383.8,521.3,384.3z M490.4,350.6L194.3,646.6l7.1,7.1l299.6-299.6L490.4,350.6z
			 M485.1,324.6c-2.8,1.2-4.6,4-4.5,7.1c0.1,3.1,2.1,5.7,5,6.7l22.8,7.8l96.2-57.5l-11.4-11.4L485.1,324.6z M603.1,272.9l10.4,10.4
			l27.5-16.4l-7.4-7.4L603.1,272.9z M565.9,428.4l22.9,2.5l59.3-99l-14.5-14.5l-78.7,78.7l4.8,26.5
			C560.1,425.7,562.7,428.1,565.9,428.4z M620.8,290.6l12.7,12.7l21.9-21.9l-7.2-7.2L620.8,290.6z M669.7,295.6l-7.2-7.2l-21.9,21.9
			l12.7,12.7L669.7,295.6z"/>
	</g>
</g>
</svg>
