<?xml version="1.0" encoding="utf-8"?>
<!-- Generator: Adobe Illustrator 28.1.0, SVG Export Plug-In . SVG Version: 6.00 Build 0)  -->
<svg version="1.1" id="Layer_1" xmlns="http://www.w3.org/2000/svg" xmlns:xlink="http://www.w3.org/1999/xlink" x="0px" y="0px"
	 viewBox="0 0 720 720" style="enable-background:new 0 0 720 720;" xml:space="preserve">
<style type="text/css">
	.st0{clip-path:url(#SVGID_00000092440750795009985150000000233879735084764827_);}
	.st1{fill:none;stroke:#FFFFFF;stroke-miterlimit:10;}
</style>
<g>
	<defs>
		<rect id="SVGID_1_" width="720" height="720"/>
	</defs>
	<clipPath id="SVGID_00000109751754953657143690000013635166279501931186_">
		<use xlink:href="#SVGID_1_"  style="overflow:visible;"/>
	</clipPath>
	<g style="clip-path:url(#SVGID_00000109751754953657143690000013635166279501931186_);">
		<path class="st1" d="M720,0H0v720h720V0z"/>
		<path d="M315,99.6c-1.5-26.6-10.8-51.7-26.6-72.8C305.6,11.6,327.7,1.8,352,0v99.6H315z M431.6,26.8C414.4,11.6,392.3,1.8,368,0
			v99.6h37C406.6,73.1,415.8,47.9,431.6,26.8z M298.9,115.6h-46.6c1.7,23.2,10.7,44.4,24.8,61.2
			C289.9,158.9,297.5,137.9,298.9,115.6z M298.9,99.6c-1.5-22.2-9-43.3-21.8-61.2c-14.1,16.8-23.1,38-24.8,61.2H298.9z M405,115.6
			h-37v99.6c24.3-1.8,46.4-11.6,63.6-26.8C415.8,167.4,406.6,142.2,405,115.6z M421.1,99.6h46.6C466,76.4,457,55.3,442.9,38.5
			C430.1,56.4,422.5,77.4,421.1,99.6z M421.1,115.6c1.5,22.2,9,43.3,21.8,61.2c14.1-16.8,23.1-38,24.8-61.2H421.1z M352,115.6h-37
			c-1.5,26.6-10.8,51.7-26.6,72.8c17.2,15.2,39.3,25,63.6,26.8V115.6z M368,620.4V720c24.3-1.8,46.4-11.6,63.6-26.8
			c-15.8-21.1-25-46.2-26.6-72.8H368z M288.4,693.2c17.2,15.2,39.3,25,63.6,26.8v-99.6h-37C313.4,646.9,304.2,672.1,288.4,693.2z
			 M421.1,604.4h46.6c-1.7-23.2-10.7-44.4-24.8-61.2C430.1,561.1,422.5,582.1,421.1,604.4z M421.1,620.4c1.5,22.2,9,43.3,21.8,61.2
			c14.1-16.8,23.1-38,24.8-61.2H421.1z M315,604.4h37v-99.6c-24.3,1.8-46.4,11.6-63.6,26.8C304.2,552.6,313.4,577.8,315,604.4z
			 M298.9,620.4h-46.6c1.7,23.2,10.7,44.4,24.8,61.2C289.9,663.6,297.5,642.6,298.9,620.4z M298.9,604.4c-1.5-22.2-9-43.3-21.8-61.2
			c-14.1,16.8-23.1,38-24.8,61.2H298.9z M368,604.4h37c1.5-26.6,10.8-51.7,26.6-72.8c-17.2-15.2-39.3-25-63.6-26.8V604.4z
			 M673.9,480.1l-91.2,91.2l71,71l-11.3,11.3L360,371.3l-91.2,91.2c0,0,0,0,0,0L77.5,653.7l-11.3-11.3L208.6,500
			c-55.1,18.8-118.7,6.3-162.5-37.5c-61.4-61.4-61.4-161.3,0-222.6l91.2-91.2l-71-71l11.3-11.3L360,348.7L642.5,66.3l11.3,11.3
			L511.4,220c55.1-18.8,118.7-6.3,162.5,37.5C735.3,318.9,735.3,418.7,673.9,480.1z M199.3,210.7L99.1,311l98.6,98.6L298,309.3
			L199.3,210.7z M106.9,332.9c-18.1,19-17.8,49.2,0.9,67.9c18.7,18.7,48.9,18.9,67.9,0.9L106.9,332.9z M348.7,360L305,316.4
			L197.7,423.7l-14.9-14.9c-23,22-59.5,21.7-82.1-0.9c-22.6-22.6-22.9-59.1-0.9-82.1L84.9,311l107.4-107.3L148.5,160l-91.2,91.2
			c-55.2,55.1-55.2,144.9,0,200c55.2,55.1,144.9,55.1,200,0L348.7,360z M520.7,509.3L620.9,409l-98.6-98.6L422,410.7L520.7,509.3z
			 M613.1,387.1c18.1-19,17.8-49.2-0.9-67.9c-18.7-18.7-48.9-18.9-67.9-0.9L613.1,387.1z M371.3,360l43.7,43.6l107.4-107.3
			l14.9,14.9c23-22,59.5-21.7,82.1,0.9c22.6,22.6,22.9,59.1,0.9,82.1l14.9,14.9L527.7,516.4l43.7,43.7l91.2-91.2
			c55.2-55.1,55.2-144.9,0-200c-55.2-55.1-144.9-55.1-200.1,0L371.3,360z"/>
	</g>
</g>
</svg>
