<?xml version="1.0" encoding="utf-8"?>
<!-- Generator: Adobe Illustrator 28.1.0, SVG Export Plug-In . SVG Version: 6.00 Build 0)  -->
<svg version="1.1" id="Layer_1" xmlns="http://www.w3.org/2000/svg" xmlns:xlink="http://www.w3.org/1999/xlink" x="0px" y="0px"
	 viewBox="0 0 720 720" style="enable-background:new 0 0 720 720;" xml:space="preserve">
<style type="text/css">
	.st0{clip-path:url(#SVGID_00000150802540699421601990000005695834482815845276_);}
	.st1{fill:none;stroke:#FFFFFF;stroke-miterlimit:10;}
</style>
<g>
	<defs>
		<rect id="SVGID_1_" width="720" height="720"/>
	</defs>
	<clipPath id="SVGID_00000054958190747616751440000012674141733263588536_">
		<use xlink:href="#SVGID_1_"  style="overflow:visible;"/>
	</clipPath>
	<g style="clip-path:url(#SVGID_00000054958190747616751440000012674141733263588536_);">
		<path class="st1" d="M720,0H0v720h720V0z"/>
		<path d="M383.6,253.4l73.2,73.2l-9.6,4.5L374,257.9L383.6,253.4z M346.9,230.8l9.6-4.5l-45.9-45.9l-7.1,7.1L346.9,230.8z
			 M416.6,198.3L308.5,90.2l-7.1,7.1l105.5,105.5L416.6,198.3z M516.9,298.6l-73.2-73.2l-9.6,4.5l73.2,73.2L516.9,298.6z
			 M474.3,358.2l58.2,58.2l7.1-7.1l-55.6-55.6L474.3,358.2z M629.8,411.5L544,325.7l-9.6,4.5l88.4,88.4L629.8,411.5z M577,270.6
			l-73.2-73.2l-9.6,4.5l73.2,73.2L577,270.6z M594.4,302.2l118.5,118.5l7.1-7.1L604.1,297.7L594.4,302.2z M476.6,170.3L306.4,0
			l-7.1,7.1L467,174.8L476.6,170.3z M331.1,447.2L257.9,374l-4.5,9.6l73.2,73.2L331.1,447.2z M358.2,474.3l-4.5,9.6l55.6,55.6
			l7.1-7.1L358.2,474.3z M197.4,503.7l73.2,73.2l4.5-9.6l-73.2-73.2L197.4,503.7z M225.4,443.7l73.2,73.2l4.5-9.6l-73.2-73.2
			L225.4,443.7z M325.7,544l85.8,85.8l7.1-7.1l-88.3-88.3L325.7,544z M230.8,346.9l-43.3-43.3l-7.1,7.1l45.9,45.9L230.8,346.9z
			 M297.7,604.1L413.6,720l7.1-7.1L302.2,594.4L297.7,604.1z M174.8,467L7.1,299.3L0,306.4l170.3,170.3L174.8,467z M90.2,308.5
			l108.1,108.1l4.5-9.6L97.3,301.4L90.2,308.5z M720,268.3l-8.8,6.1c-15.9,10.9-33.4,19.1-52.1,24.3l-8.9,2.5l-8.2-4.6
			c-9.4-5.3-19.7-9.1-30.3-11l-3.5-0.6l-190.1,88.6l26.2,26.2c52.7,52.7,102.6,109.2,148.3,168l54.3,69.7c2.1,2.7,1.9,6.6-0.6,9
			c-1.3,1.3-3.1,2-4.9,2c-1.5,0-2.9-0.5-4.2-1.4l-70.6-54.6c-58.3-45.4-114.4-94.9-166.7-147.2l-26.8-26.8l-88.6,189.9l0.6,3.5
			c2,10.7,5.7,20.9,11,30.3l4.6,8.2l-2.5,8.9c-5.2,18.6-13.3,36.1-24.3,52.1l-6.1,8.8l-4.8-0.6c-12.9-1.5-25.2-7.2-34.7-16.2
			l-3.4-3.2l2-8.2c7-28.8,19.1-55.8,36.1-80.1l6-8.6l91.8-196.9l-85.5-85.5c-0.9-0.9-1.8-1.9-2.8-2.8l-97,207.9l0.6,3.5
			c2,10.7,5.7,20.9,11,30.3l4.6,8.2l-2.5,8.9c-5.2,18.6-13.3,36.1-24.3,52.1l-6.1,8.8l-4.8-0.6c-12.9-1.5-25.2-7.2-34.7-16.2
			l-3.4-3.2l2-8.2c7-28.8,19.1-55.8,36.1-80.1l6-8.6l100.3-215c-47.2-48.3-92-99.6-133.4-152.9l-54.3-70c-2.1-2.7-1.9-6.6,0.6-9
			c2.4-2.4,6.3-2.7,9-0.6l70.6,54.9c53,41.2,104,85.9,152.1,132.9l215.2-100.4l8.6-6c24.4-16.9,51.3-29,80.1-36.1l8.2-2l3.2,3.4
			c8.9,9.4,14.7,21.8,16.2,34.7l0.6,4.8l-8.8,6.1c-15.9,10.9-33.4,19.1-52.1,24.3l-8.9,2.5l-8.2-4.6c-9.4-5.3-19.7-9.1-30.3-11
			l-3.5-0.6l-208.1,97c0.7,0.7,1.5,1.5,2.3,2.2l86.1,86.1l197.1-91.9l8.6-6c24.4-16.9,51.3-29,80.1-36.1l8.2-2l3.2,3.4
			c8.9,9.4,14.7,21.8,16.2,34.7L720,268.3z M283.6,258.4c-4.8-4.8-15.6-13.6-27.3-21.1c-11.7-7.6-24.2-13.8-32.5-13.5
			c0,8.5,6.2,21.1,13.5,32.9c7.4,11.7,15.9,22.6,20.6,27.4l84.1,82.7l24.7-24.7L283.6,258.4z M436,462.1
			c4.9,4.7,15.7,13.3,27.4,20.6c11.7,7.4,24.4,13.5,32.9,13.5c0.3-8.3-6-20.9-13.5-32.5c-7.6-11.7-16.4-22.5-21.1-27.3L378,353.3
			L353.3,378L436,462.1z"/>
	</g>
</g>
</svg>
