<?xml version="1.0" encoding="utf-8"?>
<!-- Generator: Adobe Illustrator 28.1.0, SVG Export Plug-In . SVG Version: 6.00 Build 0)  -->
<svg version="1.1" id="Layer_1" xmlns="http://www.w3.org/2000/svg" xmlns:xlink="http://www.w3.org/1999/xlink" x="0px" y="0px"
	 viewBox="0 0 720 720" style="enable-background:new 0 0 720 720;" xml:space="preserve">
<style type="text/css">
	.st0{clip-path:url(#SVGID_00000106119122132577981950000008465091830862737296_);}
	.st1{fill:none;stroke:#FFFFFF;stroke-miterlimit:10;}
</style>
<g>
	<defs>
		<rect id="SVGID_1_" width="720" height="720"/>
	</defs>
	<clipPath id="SVGID_00000173840562789062529330000009273834664429662127_">
		<use xlink:href="#SVGID_1_"  style="overflow:visible;"/>
	</clipPath>
	<g style="clip-path:url(#SVGID_00000173840562789062529330000009273834664429662127_);">
		<path class="st1" d="M720,0H0v720h720V0z"/>
		<path d="M47.4,397.4c-11.6,6.1-23.6,12.4-47.4,12.4v-10c21.3,0,31.7-5.5,42.7-11.3c11.6-6.1,23.6-12.4,47.4-12.4
			c13.5,0,23.2,2.1,31.3,5c-0.4,3.5-0.6,7-0.6,10.5c-7.8-3.2-16.9-5.4-30.6-5.4C68.8,386.1,58.4,391.6,47.4,397.4z M90.1,284.5
			c21.3,0,31.7,5.5,42.7,11.3c9.3,4.9,18.9,9.9,34.6,11.7c6.1-3.8,12.5-7,19.4-9.5c-2.1,0.1-4.3,0.2-6.7,0.2
			c-21.3,0-31.7-5.5-42.7-11.3c-11.6-6.1-23.6-12.4-47.4-12.4c-23.8,0-35.8,6.3-47.4,12.4c-11,5.8-21.4,11.3-42.7,11.3v10
			c23.7,0,35.8-6.3,47.4-12.4C58.4,290,68.8,284.5,90.1,284.5z M90.1,335.3c20.7,0,31.1,5.2,41.8,10.8c1.5-3,3.2-5.9,5-8.6
			c-11.5-6-23.5-12.2-46.9-12.2c-23.7,0-35.8,6.3-47.4,12.4C31.7,343.6,21.3,349,0,349v10c23.7,0,35.8-6.3,47.4-12.4
			C58.4,340.8,68.8,335.3,90.1,335.3z M90.1,437c21.3,0,31.7,5.5,42.7,11.3c2.7,1.4,5.4,2.8,8.3,4.2c-3.9-5.1-7.3-10.6-10.1-16.4
			c-9.9-4.9-21.5-9.1-40.9-9.1c-23.7,0-35.8,6.3-47.4,12.4c-11,5.8-21.4,11.3-42.7,11.3v10c23.7,0,35.8-6.3,47.4-12.4
			C58.4,442.5,68.8,437,90.1,437z M494.9,394.1l15.5-4.1L469,235.1c-0.2-0.6,0.1-1.1,0.3-1.4c0.2-0.3,0.6-0.6,1.3-0.6l33.2,0.1
			c7.2,0,13.1,5.9,13.1,13.1s-5.9,13.1-13.1,13.1v16c16,0,29.1-13.1,29.1-29.1s-13.1-29.1-29-29.1l-33.3-0.1
			c-5.5,0-10.5,2.5-13.9,6.8c-3.4,4.3-4.5,9.8-3.2,15.2L494.9,394.1z M211.4,292.5c3.1-0.3,6.2-0.5,9.4-0.5c4.2,0,8.3,0.3,12.4,0.8
			c9.2-4.6,19.4-8.4,37-8.4c1.1,0,2.1,0,3.1,0.1l-9.9-9.9c-19.3,1.1-30.1,6.7-40.6,12.2C219.1,288.9,215.4,290.8,211.4,292.5z
			 M471,343.4l-8.5-32c-29.6,14.8-49.9,45.3-49.9,80.6c0,49.7,40.3,90,90,90s90-40.3,90-90s-40.3-90-90-90c-1.8,0-3.6,0.1-5.4,0.2
			l8.5,31.9c30.5,1.6,54.9,27,54.9,57.9c0,32-26,58-58,58s-58-26-58-58C444.6,371.7,455.1,353.8,471,343.4z M367.6,145.9
			c-2.1-1.2-4.7-1.9-7.6-1.9c-2.9,0-5.5,0.7-7.6,1.9c-3-4.6-8.7-8.9-15.6-12.4L307,163.4c1,0.3,2.1,0.6,3.1,0.9
			c6.7,1.7,13.7,2.6,20.1,2.6c12.2,0,22.3-3.4,24.3-11.3c0.4-1.7,1.5-3.7,5.5-3.7s5.1,2,5.5,3.7c1.5,5.8,7.3,9.1,15.1,10.5
			l41.6-41.6c-6.8-0.2-14.4,0.8-21.6,2.6C386.7,130.6,373,137.7,367.6,145.9z M219.7,208.3l-142-142L66.4,77.7l142,142L219.7,208.3z
			 M398.5,25.3c4.2-3.5,8.7-8,11.4-12.8C397.6,3.9,381.8,0,360,0c-31.8,0-50.7,8.2-64.6,27.4c-9.1,12.6-14.8,27.4-18.2,42.4
			c16.3-15.1,43.7-21,68.8-26.5C367.5,38.7,387.6,34.3,398.5,25.3z M90.1,233.7c21.3,0,31.7,5.5,42.7,11.3
			c11.6,6.1,23.6,12.4,47.4,12.4c23.7,0,35.7-6.3,47.3-12.4c1.4-0.7,2.7-1.4,4.1-2.1l-7.4-7.4c-0.4,0.2-0.9,0.5-1.3,0.7
			c-11,5.8-21.4,11.3-42.7,11.3c-21.3,0-31.7-5.5-42.7-11.3c-11.6-6.1-23.6-12.4-47.4-12.4c-23.8,0-35.8,6.3-47.4,12.4
			c-11,5.8-21.4,11.3-42.7,11.3v10c23.7,0,35.8-6.3,47.4-12.4C58.4,239.1,68.8,233.7,90.1,233.7z M274.7,139.2
			c0.6,7.9,10,15.4,21.9,20.5l30.3-30.3c-2.5-0.9-5-1.6-7.5-2.2c-12-3-25-3.6-33.9-0.7c12.2-20.2,41-34.4,74.5-34.4
			s62.3,14.2,74.5,34.4l-40.4,40.4c5.2-0.3,10.6-1.1,15.8-2.5c17.4-4.4,34.5-14.3,35.4-25.1c3.6-23.9,4.6-76.7-20.8-111.8
			c-2.1-2.9-4.4-5.6-6.8-8.1c0,0,0,0,0,0c-2.9,4.6-7.1,9.2-12.7,13.9c-12.8,10.6-34.1,15.3-56.8,20.2c-36.4,7.9-74.1,16.1-75.3,49.4
			C272.4,117.3,273.4,130.2,274.7,139.2z M646.8,261.6c5.7,8.5,10.2,17.7,13.2,27.5l9.5-3c-3.4-10.6-8.2-20.7-14.5-30L646.8,261.6z
			 M625.4,405.6c-7.9,6.5-16.7,11.8-26.1,15.8l3.9,9.2c10.2-4.4,19.8-10.2,28.5-17.3L625.4,405.6z M616.6,214.5l-7.1,7.1l22.8,22.6
			l7-7.2L616.6,214.5z M673.1,343.5c1.3-7.1,2-14.4,2-21.7c0-3.9-0.2-7.8-0.6-11.6l-10,1c0.3,3.5,0.5,7.1,0.5,10.6
			c0,6.7-0.6,13.3-1.8,19.8L673.1,343.5z M570.2,182.2l22.6,22.6l7.1-7.1l-22.6-22.6L570.2,182.2z M649.1,395.8
			c7-8.7,12.7-18.4,17-28.6l-9.2-3.8c-3.9,9.4-9.1,18.2-15.5,26.2L649.1,395.8z M439,639.1h-16.6c-2.8,0-5-2.2-5-5c0-2.8,2.2-5,5-5
			h13.4l-3.3-10.6h-20.3c-2.8,0-5-2.2-5-5c0-2.8,2.2-5,5-5h17.2l-3.3-10.6h-24.1c-2.8,0-5-2.2-5-5s2.2-5,5-5h20.9l-3.3-10.6h-27.9
			c-2.8,0-5-2.2-5-5s2.2-5,5-5h24.8l-4.7-16.1c-58.6,8.1-41-25.6-58.3-38.5c-21.4,7.3-39.6,21.2-49.7,30.2l1.3,2.2
			c13.5,23.9,23.4,29.9,39.8,39.8c8.6,5.2,18.4,11.1,30.8,20.7c9.7,7.5,18.4,23.2,27.7,39.9c8.6,15.5,17.5,31.6,26.5,40
			c7.6,7.1,11.5,9.6,13.2,10.4c8.1-5.3,15.5-4.3,26.4,4.2c-2.6-9.8-10.4-22.3-16.6-32.7C446.4,656.6,442.8,649.9,439,639.1z
			 M307.5,416.1c-10.5,38.1-45.4,66-86.8,66c-49.7,0-90-40.3-90-90s40.3-90,90-90c14.4,0,28,3.4,40.1,9.4l34.1-48l-13.3-43.8
			l-2.3,0.6c-3,1-6.1,1.5-9.1,1.5c-9.5,0-18.7-4.7-24.1-12.9l-3.4-5c-1.4-2-1.5-4.6-0.3-6.8c1.1-2.1,3.4-3.5,5.8-3.5h77.1
			c4.1,0,7.5,3.4,7.5,7.5c0,3.2-2.1,6.1-5.1,7.1l-30.4,7.6l10.6,34.8h138.5l8.8,32.9L353,401.3c-2.7,3.1-6.5,4.8-10.6,4.8H220.8
			c-7.7,0-14-6.3-14-14c0-2.9,0.9-5.6,2.4-7.9c0,0,0,0,0,0l32.8-46.1c-6.6-2.6-13.7-4-21.2-4c-32,0-58,26-58,58s26,58,58,58
			c23.4,0,43.7-14,52.8-34L307.5,416.1L307.5,416.1z M310.8,260.6l33,108.5l94.1-108.5H310.8z M251,342.6l-25.2,35.5h104
			l-31.1-102.5l-29.1,40.9c18.3,11.8,32,30.1,37.9,51.6h-34C268.7,357.5,260.8,348.7,251,342.6z M448.3,704.5
			c-2.2,1.5-4,2.4-7.3,1.4c-4.1-1.3-10-5.6-18-13.1c-10.1-9.5-19.4-26.3-28.4-42.5c-8.7-15.8-17-30.6-25.1-36.9
			c-12-9.2-21.5-15-29.9-20.1c-16.6-10-28.5-17.3-43.3-43.3c-0.2-0.3-0.1-0.1,0,0c-7.3,5-17,11.8,8.3,37.8c0,0,16,20,46.1,41.5
			c8.7,6.2,15.8,14.3,21.2,23.5c20.7,34.8,54.4,55.1,54.4,55.1c12.4,9,21.4,11.8,27.8,11.8c10.7,0.1,14.2-7.6,14.2-7.6
			c0,0,0,0-0.1-0.1C454.9,700.1,451.7,702.2,448.3,704.5z M502.6,492.1c-8.6,0-17-1.1-25-3.2l164.7,164.7l11.3-11.3L503.4,492.1
			C503.1,492.1,502.9,492.1,502.6,492.1z M66.4,642.3l11.3,11.3l163.7-163.7c-6.7,1.4-13.6,2.2-20.7,2.2c-1.3,0-2.6,0-3.9-0.1
			c-0.1,0-0.1,0.1-0.2,0.1c-9.8,5-17.5,9.4-36.5,9.4c-21.3,0-31.7-5.5-42.7-11.3c-11.6-6.1-23.6-12.4-47.4-12.4
			c-23.8,0-35.8,6.3-47.4,12.4c-11,5.8-21.4,11.3-42.7,11.3v10c23.7,0,35.8-6.3,47.4-12.4c11-5.8,21.4-11.3,42.7-11.3
			c21.3,0,31.7,5.5,42.7,11.3c11.6,6.1,23.6,12.4,47.4,12.4c7.2,0,13.3-0.6,18.6-1.6l-40,40c-8.5-2.1-14.8-5.4-21.3-8.9
			c-11.6-6.1-23.6-12.4-47.4-12.4c-23.8,0-35.8,6.3-47.4,12.4c-11,5.8-21.4,11.3-42.7,11.3v10c23.7,0,35.8-6.3,47.4-12.4
			c11-5.8,21.4-11.3,42.7-11.3c21.3,0,31.7,5.5,42.7,11.3c5.5,2.9,11.1,5.8,17.9,8.1L66.4,642.3z M666.4,200.9l-68-68l0.1-0.1
			l55.2-55.2l-11.3-11.3L501.6,207.1h2.3c5.9,0,11.5,1.4,16.6,3.8l7.5-7.5l71.3,71.3l0.2,0.2c13.3,12,20.9,29.1,20.9,47
			c0,18.4-7.9,35-20.5,46.6c0.9,3.7,1.6,7.5,2.1,11.3c17.3-13.4,28.4-34.4,28.4-57.9c0-20.6-8.8-40.4-24.1-54.3L535,196.3l56.3-56.3
			l68.1,68.1l0.2,0.2c32,29,50.4,70.4,50.4,113.6c0,83.9-67.8,152.2-151.5,153.1c-5.9,4-12.3,7.4-19,10h17.3
			c90,0,163.2-73.2,163.2-163.2C720,275.9,700.5,231.8,666.4,200.9z"/>
	</g>
</g>
</svg>
